<svg width="36" height="36" viewBox="0 0 36 36" fill="none" xmlns="http://www.w3.org/2000/svg">
<path d="M33 25.1086V7.00357C33 5.20357 31.53 3.86857 29.745 4.01857H29.655C26.505 4.28857 21.72 5.89357 19.05 7.57357L18.795 7.73857C18.36 8.00857 17.64 8.00857 17.205 7.73857L16.83 7.51357C14.16 5.84857 9.39 4.25857 6.24 4.00357C4.455 3.85357 3 5.20357 3 6.98857V25.1086C3 26.5486 4.17 27.8986 5.61 28.0786L6.045 28.1386C9.3 28.5736 14.325 30.2236 17.205 31.7986L17.265 31.8286C17.67 32.0536 18.315 32.0536 18.705 31.8286C21.585 30.2386 26.625 28.5736 29.895 28.1386L30.39 28.0786C31.83 27.8986 33 26.5486 33 25.1086Z" stroke="#929292" stroke-width="2" stroke-linecap="round" stroke-linejoin="round"/>
<path d="M18 8.23438V30.7344" stroke="#929292" stroke-width="2" stroke-linecap="round" stroke-linejoin="round"/>
<path d="M11.625 12.7344H8.25" stroke="#929292" stroke-width="2" stroke-linecap="round" stroke-linejoin="round"/>
<path d="M12.75 17.2344H8.25" stroke="#929292" stroke-width="2" stroke-linecap="round" stroke-linejoin="round"/>
</svg>
