<?xml version="1.0" encoding="UTF-8"?><svg xmlns="http://www.w3.org/2000/svg" id="Layer_1" data-name="Layer 1" viewBox="0 0 141.73 141.73">
  <defs>
    <style>
      .cls-1 {
        fill: #5c5c5c;
      }
    </style>
  </defs>
  <path class="cls-1" d="M114.6,3.59c-12.43,16.1-12.5,10.55,.06,26.55h-40.46c0,11.72-.01,23.41,.03,35.13,5.31,12.07,13.93,22.96,20.47,34.54,1.26,2.87-2.98,5-4.14,7.54-17-17.56-10.11-10.95-31.93,7.7-4.35-4.24-8.65-8.43-12.99-12.66,7.49-12.33,15.17-24.54,22.7-36.85,1.73-20.33,.19-41.39,.59-61.95,15.22,0,30.44,0,45.66,0Z"/>
  <path class="cls-1" d="M23.21,138.62c6.55-10.63,13.02-21.12,19.56-31.74,22.3,22.17,12.52,15.75,35.8-3.98,10.58,8.35,10.08,17.67,19.72,2.89,6.76,10.97,13.45,21.82,20.23,32.82H23.21Z"/>
</svg>