<svg width="160" height="52" viewBox="0 0 160 52" fill="none" xmlns="http://www.w3.org/2000/svg">
<path d="M118.424 0H148.661C151.426 0 154.077 1.09825 156.032 3.05315C157.987 5.00805 159.085 7.65947 159.085 10.4241V40.661C159.085 43.4256 157.987 46.077 156.032 48.0319C154.077 49.9868 151.426 51.0851 148.661 51.0851H118.424C115.659 51.0851 113.008 49.9868 111.053 48.0319C109.098 46.077 108 43.4256 108 40.661V10.4241C108 7.65947 109.098 5.00805 111.053 3.05315C113.008 1.09825 115.659 0 118.424 0Z" fill="#FF6700"/>
<path d="M149.543 41.5426L125.857 24.8226C129.652 24.101 133.134 22.2328 135.834 19.4701C138.533 16.7074 140.321 13.1832 140.955 9.37278C137.209 10.0074 133.754 11.7929 131.069 14.4813C128.243 17.234 126.367 20.8149 125.712 24.7052V9H117V41.5426H149.543ZM125.954 27.2457L143.495 39.6096H125.954V27.2457Z" fill="white"/>
<path d="M1.42188 51.061V33.9023H3.47907V41.6699L10.6377 33.9023H13.23L6.86467 40.7381L13.3315 51.061H10.8315L5.38866 42.3341L3.47907 44.3728V51.061H1.42188Z" fill="white"/>
<path d="M33.0352 51.0622V38.9035H34.8802L35.0554 41.2283C35.4244 40.435 36.0219 39.7701 36.7713 39.3187C37.6337 38.8218 38.6178 38.5758 39.6126 38.6083V40.767H39.0684C38.3887 40.7607 37.7146 40.8892 37.085 41.1452C36.4731 41.4045 35.964 41.8585 35.6366 42.4367C35.2361 43.2068 35.0482 44.0698 35.0923 44.9367V51.0622H33.0352Z" fill="white"/>
<path d="M22.1511 51.0613C21.2796 51.0906 20.4135 50.9136 19.6234 50.5447C18.9987 50.2468 18.478 49.7679 18.129 49.1702C17.8045 48.6097 17.6357 47.9728 17.64 47.3252C17.615 46.7659 17.7322 46.2093 17.9807 45.7076C18.2291 45.2059 18.6007 44.7753 19.0607 44.4562C20.2196 43.7349 21.5721 43.3871 22.9352 43.4599H26.2194V43.3123C26.252 42.8734 26.1944 42.4325 26.05 42.0168C25.9056 41.6011 25.6776 41.2194 25.3799 40.8953C25.0833 40.6163 24.7336 40.3999 24.3517 40.2588C23.9698 40.1177 23.5633 40.055 23.1566 40.0743C22.4197 40.0568 21.6951 40.2661 21.081 40.6739C20.7903 40.8772 20.544 41.1373 20.3569 41.4386C20.1698 41.7399 20.0458 42.076 19.9924 42.4267H17.8799C17.9478 41.6047 18.2703 40.8243 18.8024 40.1942C19.3283 39.5888 19.9886 39.1149 20.7304 38.8104C21.5078 38.487 22.3424 38.3238 23.1843 38.3307C23.8635 38.253 24.5516 38.3272 25.1986 38.548C25.8457 38.7688 26.4355 39.1306 26.9255 39.6074C27.4156 40.0842 27.7935 40.6639 28.0319 41.3046C28.2703 41.9454 28.3634 42.6312 28.3042 43.3123V50.7846H26.4592L26.3301 48.6075C25.9772 49.3042 25.4613 49.9055 24.8264 50.3602C24.0392 50.8751 23.109 51.127 22.1695 51.0798L22.1511 51.0613ZM22.4832 49.3363C23.2046 49.3557 23.913 49.1422 24.5035 48.7274C25.0706 48.3222 25.517 47.7706 25.795 47.1315C26.0885 46.4854 26.2395 45.7838 26.2378 45.0743H23.1013C22.2033 44.9917 21.3036 45.2126 20.5459 45.7016C20.3102 45.8868 20.1203 46.1237 19.9907 46.394C19.8611 46.6643 19.7954 46.9609 19.7987 47.2606C19.7889 47.5518 19.8462 47.8414 19.9662 48.1069C20.0861 48.3725 20.2656 48.6068 20.4906 48.792C21.0614 49.2078 21.76 49.4102 22.4647 49.3639" fill="white"/>
<path d="M46.4675 51.0613C45.596 51.0906 44.7299 50.9136 43.9398 50.5447C43.3151 50.2468 42.7944 49.7679 42.4454 49.1702C42.1234 48.6087 41.9548 47.9724 41.9564 47.3252C41.9314 46.7659 42.0486 46.2093 42.2971 45.7076C42.5455 45.2059 42.9171 44.7753 43.3771 44.4562C44.536 43.7349 45.8885 43.3871 47.2516 43.4599H50.5081V43.3123C50.5398 42.8742 50.4826 42.4343 50.34 42.0189C50.1973 41.6036 49.972 41.2214 49.6778 40.8953C49.379 40.6169 49.0276 40.4009 48.6443 40.2599C48.261 40.119 47.8534 40.0558 47.4454 40.0743C46.7084 40.0568 45.9838 40.2661 45.3697 40.6739C45.0791 40.8772 44.8327 41.1373 44.6456 41.4386C44.4585 41.7399 44.3345 42.076 44.2812 42.4267H42.2055C42.2734 41.6047 42.5959 40.8243 43.128 40.1942C43.6539 39.5888 44.3142 39.1149 45.0561 38.8104C45.8334 38.487 46.668 38.3238 47.5099 38.3307C48.1892 38.253 48.8772 38.3272 49.5243 38.548C50.1713 38.7688 50.7612 39.1306 51.2512 39.6074C51.7412 40.0842 52.1191 40.6639 52.3575 41.3046C52.596 41.9454 52.689 42.6312 52.6299 43.3123V50.7846H50.7848L50.6649 48.6075C50.3056 49.3026 49.7872 49.9032 49.152 50.3602C48.3648 50.8751 47.4346 51.127 46.4952 51.0798L46.4675 51.0613ZM46.8088 49.3363C47.533 49.3557 48.2444 49.1423 48.8383 48.7274C49.4002 48.319 49.8429 47.7681 50.1206 47.1315C50.3977 46.4755 50.5299 45.7675 50.5081 45.0558H47.4177C46.5197 44.9732 45.62 45.1941 44.8623 45.6831C44.6266 45.8683 44.4367 46.1053 44.3071 46.3756C44.1775 46.6459 44.1118 46.9424 44.1151 47.2422C44.1053 47.5334 44.1626 47.8229 44.2826 48.0885C44.4025 48.354 44.582 48.5884 44.807 48.7735C45.3778 49.1894 46.0764 49.3918 46.7811 49.3455" fill="white"/>
<path d="M64.3432 51.06C63.4211 51.0774 62.5088 50.8684 61.6864 50.4511C60.9364 50.0677 60.3168 49.4706 59.9059 48.7352L59.7122 50.7648H57.8672V33.1172H59.9244V40.6172C60.3611 39.9789 60.9228 39.4359 61.5757 39.0212C62.4103 38.5223 63.3715 38.2756 64.3432 38.3109C65.4535 38.283 66.5485 38.5744 67.4982 39.1504C68.3985 39.6983 69.1272 40.4877 69.6015 41.429C70.0931 42.4524 70.3483 43.5732 70.3483 44.7085C70.3483 45.8438 70.0931 46.9646 69.6015 47.988C69.1201 48.92 68.3886 49.6995 67.4889 50.2389C66.527 50.7998 65.4288 51.0839 64.3155 51.06H64.3432ZM64.0941 49.2703C64.853 49.2852 65.6009 49.0871 66.2528 48.6984C66.8768 48.3045 67.3834 47.7501 67.7196 47.0932C68.0936 46.3466 68.2804 45.5203 68.2639 44.6854C68.2815 43.8534 68.0946 43.0298 67.7196 42.2869C67.3791 41.6181 66.8602 41.0565 66.2204 40.6643C65.5805 40.272 64.8446 40.0644 64.0941 40.0644C63.3436 40.0644 62.6077 40.272 61.9679 40.6643C61.328 41.0565 60.8092 41.6181 60.4687 42.2869C60.0936 43.0298 59.9067 43.8534 59.9244 44.6854C59.9078 45.5203 60.0946 46.3466 60.4687 47.0932C60.8048 47.7501 61.3114 48.3045 61.9354 48.6984C62.5874 49.0871 63.3352 49.2852 64.0941 49.2703Z" fill="white"/>
<path d="M75.4993 36.2084C75.3113 36.2135 75.1243 36.1803 74.9497 36.1107C74.775 36.0411 74.6164 35.9366 74.4834 35.8037C74.3505 35.6707 74.246 35.5121 74.1764 35.3374C74.1068 35.1627 74.0735 34.9757 74.0786 34.7878C74.0749 34.6042 74.109 34.4218 74.1789 34.252C74.2487 34.0822 74.3527 33.9285 74.4845 33.8007C74.7621 33.5517 75.1218 33.4141 75.4947 33.4141C75.8675 33.4141 76.2273 33.5517 76.5048 33.8007C76.6396 33.9267 76.7463 34.0798 76.8179 34.2499C76.8894 34.42 76.9242 34.6033 76.92 34.7878C76.9252 34.9765 76.891 35.1642 76.8195 35.339C76.748 35.5137 76.6408 35.6716 76.5048 35.8025C76.3729 35.934 76.2159 36.0376 76.0432 36.1073C75.8705 36.1771 75.6855 36.2114 75.4993 36.2084ZM74.4938 38.9022H76.5602V51.0608H74.4938V38.9022Z" fill="white"/>
<path d="M80.3047 51.061V49.3728L87.0667 40.6182H80.4246V38.9023H89.3729V40.5905L82.611 49.3451H89.4929V51.061H80.3047Z" fill="white"/>
<path d="M8.4225 17.6027C8.422 18.2506 8.32244 18.8945 8.1273 19.5123C7.93608 20.1358 7.66967 20.7337 7.33394 21.2927C6.98368 21.8735 6.57571 22.4175 6.11623 22.9164C5.63778 23.4376 5.12627 23.9276 4.58487 24.3831C4.0259 24.8384 3.44063 25.2604 2.8321 25.647C2.23538 26.0287 1.61958 26.3797 0.987084 26.6986L0 24.6691C0.535055 24.3924 1.07933 24.0879 1.61439 23.7466C2.13542 23.4186 2.63745 23.0613 3.11808 22.6765C3.58264 22.3017 4.02037 21.8948 4.42804 21.4588C4.81019 21.0502 5.14731 20.6018 5.43357 20.1212C5.7039 19.6652 5.91179 19.1749 6.05166 18.6636C6.18908 18.1592 6.22977 17.6333 6.17158 17.1138C6.11764 16.6484 6.03757 16.1864 5.93173 15.73C5.82103 15.2411 5.7011 14.8075 5.57195 14.2817C5.4428 13.7559 5.31365 13.3592 5.1845 12.944C5.05535 12.5289 4.95387 12.1784 4.87084 11.9016L6.98339 11.2466C7.26937 12.123 7.55534 12.861 7.82287 13.4791C8.05367 14.0051 8.33808 14.5059 8.67158 14.9736C8.9177 15.3192 9.23157 15.6111 9.59409 15.8315C9.91311 16.008 10.2719 16.1001 10.6365 16.099H10.6919C10.8445 16.0967 10.9957 16.1282 11.1347 16.1913C11.3983 16.3074 11.6089 16.518 11.7251 16.7817C11.7744 16.9461 11.787 17.1193 11.762 17.2891C11.765 17.4349 11.7379 17.5799 11.6823 17.7148C11.6267 17.8497 11.544 17.9717 11.4391 18.0732C11.3334 18.1737 11.2089 18.2523 11.0728 18.3046C10.9367 18.3568 10.7915 18.3816 10.6457 18.3776H10.2214C9.8036 18.3474 9.39596 18.2345 9.02213 18.0455C8.79067 17.9172 8.57931 17.7556 8.39482 17.5658L8.4225 17.6027ZM7.49999 6.63408L5.65498 8.4791L3.80996 6.63408L5.65498 4.78906L7.49999 6.63408Z" fill="white"/>
<path d="M9.62555 17.2889C9.62183 17.1416 9.64859 16.995 9.70415 16.8585C9.75971 16.722 9.84288 16.5984 9.94843 16.4955C10.0481 16.3884 10.1698 16.304 10.3052 16.2483C10.4405 16.1925 10.5863 16.1667 10.7326 16.1727H11.5905C12.2076 16.1768 12.8242 16.1367 13.4355 16.0527C13.9611 15.993 14.4745 15.853 14.9577 15.6376C15.3727 15.4583 15.7325 15.1717 16.0001 14.8074C16.2728 14.4141 16.397 13.9368 16.3506 13.4605C16.3506 13.0454 16.3506 12.6118 16.2492 12.1598C16.1785 11.6354 16.0675 11.1172 15.9171 10.6099L18.0204 10.0195C18.085 10.2778 18.1495 10.5546 18.2141 10.8406C18.2787 11.1265 18.3248 11.431 18.3709 11.7631C18.4171 12.0952 18.454 12.3719 18.4909 12.6856C18.5278 12.9992 18.5462 13.2852 18.5647 13.6081C18.575 13.9177 18.6089 14.2261 18.6661 14.5306C18.7149 14.8288 18.8082 15.118 18.9429 15.3885C19.0783 15.6468 19.2707 15.8708 19.5056 16.0435C19.7787 16.2237 20.1012 16.314 20.4281 16.3018C20.5747 16.2974 20.7207 16.323 20.8571 16.3769C20.9935 16.4309 21.1175 16.512 21.2215 16.6155C21.3301 16.7165 21.4159 16.8395 21.4732 16.9763C21.5304 17.1131 21.5579 17.2606 21.5536 17.4088C21.5561 17.5585 21.5246 17.7067 21.4613 17.8424C21.401 17.9715 21.32 18.0899 21.2215 18.193C21.1206 18.2917 21.0015 18.37 20.8709 18.4236C20.7365 18.4794 20.5922 18.5076 20.4466 18.5066C19.8323 18.5334 19.2212 18.4036 18.6709 18.1292C18.1206 17.8549 17.6491 17.4451 17.3008 16.9383C16.9967 17.2282 16.6397 17.4568 16.2492 17.6118C15.7945 17.8058 15.3217 17.9541 14.8377 18.0546C14.3047 18.1681 13.7657 18.2512 13.2233 18.3037C12.6606 18.359 12.1071 18.3775 11.5628 18.3775H10.7049C10.5595 18.3828 10.4147 18.3576 10.2796 18.3036C10.1446 18.2496 10.0223 18.1679 9.92076 18.0638C9.81591 17.9623 9.73312 17.8403 9.67756 17.7054C9.62201 17.5705 9.59488 17.4256 9.59788 17.2797L9.62555 17.2889ZM14.2934 22.6671L12.4484 24.5121L10.6034 22.6671L12.4484 20.8221L14.2934 22.6671ZM18.906 22.6671L17.061 24.5121L15.216 22.6671L17.061 20.8221L18.906 22.6671Z" fill="white"/>
<path d="M19.254 17.2867C19.2515 17.1371 19.2831 16.9888 19.3463 16.8531C19.4101 16.7214 19.4977 16.6026 19.6046 16.5026C19.7088 16.3968 19.8347 16.315 19.9736 16.2627C20.1145 16.2069 20.2648 16.1787 20.4164 16.1797H30.8039C30.9524 16.1787 31.0997 16.2069 31.2374 16.2627C31.3696 16.3175 31.489 16.3992 31.588 16.5026C31.6893 16.6053 31.7733 16.7237 31.8371 16.8531C31.8929 16.9908 31.9211 17.1382 31.9201 17.2867C31.9248 17.4328 31.8985 17.5783 31.8428 17.7134C31.7871 17.8486 31.7034 17.9704 31.5972 18.0709C31.4929 18.1739 31.3689 18.2547 31.2325 18.3086C31.0962 18.3625 30.9504 18.3883 30.8039 18.3845H20.4072C20.2586 18.3855 20.1113 18.3573 19.9736 18.3015C19.8352 18.2525 19.7093 18.1737 19.6046 18.0709C19.4977 17.9709 19.4101 17.852 19.3463 17.7203C19.2831 17.5846 19.2515 17.4364 19.254 17.2867Z" fill="white"/>
<path d="M29.5515 17.2847C29.546 17.1379 29.5711 16.9916 29.6251 16.8551C29.6791 16.7185 29.7608 16.5946 29.8652 16.4913C29.9684 16.3894 30.0909 16.3092 30.2256 16.2554C30.3602 16.2015 30.5043 16.1751 30.6493 16.1777H31.8117C32.2083 16.1777 32.5958 16.1777 32.9648 16.1777C33.3076 16.1613 33.6478 16.1087 33.9796 16.0208C34.2741 15.9352 34.5496 15.7943 34.7914 15.6057C35.0423 15.4069 35.2417 15.1506 35.3725 14.8585C35.5398 14.4174 35.5845 13.9392 35.5017 13.4747C35.4146 12.7645 35.2633 12.0636 35.0497 11.3806C34.9666 11.1408 34.8744 10.8825 34.7637 10.5965L34.4408 9.81235L34.0718 8.97287L36.0737 7.97656C36.0737 7.97656 36.0737 8.05959 36.1844 8.20719L36.4427 8.79759C36.5534 9.04667 36.6641 9.34188 36.7932 9.66475C36.9224 9.98763 37.0423 10.3382 37.153 10.7072C37.8541 12.8658 37.9463 14.5448 37.4113 15.7533C37.1583 16.3458 36.7705 16.8711 36.2789 17.2875C35.7873 17.7039 35.2053 17.9998 34.5792 18.1518C34.1915 18.2658 33.7924 18.3369 33.3892 18.364H32.3006H30.6493C30.5043 18.3666 30.3602 18.3402 30.2256 18.2863C30.0909 18.2325 29.9684 18.1522 29.8652 18.0504C29.762 17.9481 29.6809 17.8257 29.627 17.6908C29.573 17.556 29.5473 17.4114 29.5515 17.2662V17.2847ZM35.8799 22.6075L34.0349 24.4526L32.1899 22.6075L34.0349 20.7625L35.8799 22.6075Z" fill="white"/>
<path d="M42.2051 0.582031C42.5372 3.65706 42.7279 6.39383 42.7771 8.79235C42.8601 12.7684 42.7771 16.0064 42.6018 18.4787L40.3601 18.3588C40.5871 15.5574 40.6611 12.7457 40.5815 9.93627C40.4339 6.29543 40.231 3.29113 39.9727 0.923362L42.2051 0.582031Z" fill="white"/>
<path d="M48.4215 11.0508C48.6245 11.7519 48.8275 12.4438 49.012 13.1264C49.0858 13.4216 49.1688 13.7261 49.2518 14.0489C49.3348 14.3718 49.4086 14.6762 49.4824 14.9714C49.5562 15.2666 49.6116 15.5895 49.6669 15.8939C49.7223 16.1984 49.7592 16.4659 49.7961 16.7242C49.7961 16.8072 49.7961 16.8995 49.7961 17.001C49.7961 17.1024 49.7961 17.2316 49.7961 17.3515C49.7987 17.9989 49.7023 18.6429 49.5101 19.2611C49.3152 19.8818 49.0457 20.4765 48.7075 21.0323C48.3574 21.6161 47.9495 22.1631 47.4898 22.6652C47.0159 23.188 46.5041 23.6752 45.9585 24.1227C45.4005 24.578 44.8185 25.003 44.2149 25.3958C43.619 25.776 43.0031 26.124 42.3699 26.4382L41.3828 24.4548C42.1846 24.0615 42.9556 23.6082 43.6891 23.0987C44.4043 22.6029 45.0687 22.0374 45.6725 21.4105C46.2309 20.8358 46.7032 20.1833 47.0747 19.4733C47.4248 18.8208 47.6086 18.092 47.6097 17.3515C47.6097 17.3515 47.6097 17.2593 47.6097 17.167V16.9179C47.5877 16.6608 47.5507 16.4051 47.499 16.1523C47.4437 15.8847 47.3883 15.5987 47.3145 15.3128C47.2407 15.0268 47.1762 14.7316 47.1024 14.4456C47.0286 14.1596 46.9548 13.8736 46.881 13.6061C46.6965 12.9696 46.5027 12.3423 46.2998 11.7058L48.4215 11.0508Z" fill="white"/>
<path d="M56.7053 18.3757C55.9844 18.3924 55.2653 18.2959 54.5743 18.0897C54.0114 17.9079 53.5015 17.5912 53.0891 17.1672C52.8519 16.936 52.6582 16.6642 52.5171 16.3646C52.3901 16.0925 52.2912 15.8081 52.2219 15.5159C52.1592 15.2557 52.1221 14.99 52.1112 14.7225C52.1112 14.4734 52.1112 14.2613 52.1112 14.0768V13.8646C52.1112 13.8646 52.1112 13.717 52.1112 13.4495C52.1112 13.1819 52.1112 12.8222 52.1112 12.3701C52.1112 11.9181 52.1112 11.3923 52.1112 10.8019C52.1112 10.2115 52.1112 9.57493 52.1112 8.91072C52.1112 8.24652 52.1112 7.59154 52.1112 6.89966C52.1112 6.20778 52.1112 5.52511 52.0466 4.87013C51.982 4.21515 51.9728 3.6063 51.9175 3.02512C51.8621 2.44394 51.8068 2.01958 51.7422 1.65981L53.947 1.25391C54.0208 1.64136 54.0761 2.11184 54.1315 2.66534C54.1868 3.21885 54.2237 3.8277 54.2606 4.51035C54.2975 5.19301 54.316 5.84799 54.3344 6.55832C54.3529 7.26865 54.3344 7.96054 54.3344 8.63397C54.3344 9.3074 54.3344 9.93471 54.3344 10.5436V12.1672C54.3344 12.6377 54.3344 13.0251 54.3344 13.3388C54.3344 13.6524 54.3344 13.8277 54.3344 13.8923V14.0952C54.3144 14.3839 54.3144 14.6737 54.3344 14.9624C54.3499 15.2032 54.4592 15.4285 54.6389 15.5897C55.1857 16.0091 55.8721 16.2038 56.5577 16.134H56.6592C56.8046 16.134 56.9488 16.1621 57.0835 16.217C57.2171 16.2783 57.3389 16.3626 57.4433 16.4661C57.5418 16.5691 57.6228 16.6875 57.6831 16.8166C57.7419 16.9538 57.7732 17.101 57.7754 17.2502C57.7783 17.3969 57.7503 17.5426 57.6931 17.6777C57.6358 17.8128 57.5507 17.9344 57.4433 18.0343C57.3407 18.1371 57.2183 18.2179 57.0835 18.2718C56.9487 18.3257 56.8043 18.3516 56.6592 18.348" fill="white"/>
<path d="M55.4376 17.2868C55.4351 17.1371 55.4667 16.9889 55.5299 16.8532C55.5937 16.7214 55.6813 16.6026 55.7882 16.5026C55.8906 16.399 56.013 16.3174 56.148 16.2628C56.2919 16.2062 56.4454 16.178 56.6 16.1798H66.9874C67.1359 16.1797 67.2831 16.2079 67.421 16.2628C67.6847 16.3789 67.8953 16.5895 68.0114 16.8532C68.0747 16.9889 68.1062 17.1371 68.1037 17.2868C68.1067 17.4326 68.0796 17.5776 68.024 17.7125C67.9684 17.8474 67.8857 17.9694 67.7808 18.0709C67.6765 18.1739 67.5525 18.2548 67.4161 18.3087C67.2798 18.3626 67.134 18.3884 66.9874 18.3846H56.5816C56.4331 18.3846 56.2859 18.3564 56.148 18.3015C56.0135 18.2501 55.8911 18.1716 55.7882 18.0709C55.6813 17.9709 55.5937 17.8521 55.5299 17.7203C55.4667 17.5847 55.4351 17.4364 55.4376 17.2868Z" fill="white"/>
<path d="M65.6525 17.2867C65.65 17.1371 65.6815 16.9888 65.7447 16.8531C65.8085 16.7214 65.8961 16.6026 66.003 16.5026C66.1072 16.3968 66.2331 16.315 66.372 16.2627C66.5129 16.2069 66.6633 16.1787 66.8148 16.1797H77.2023C77.3509 16.1787 77.4982 16.2069 77.6359 16.2627C77.7681 16.3175 77.8874 16.3992 77.9864 16.5026C78.0877 16.6053 78.1718 16.7237 78.2355 16.8531C78.2913 16.9908 78.3195 17.1382 78.3185 17.2867C78.3232 17.4328 78.2969 17.5783 78.2412 17.7134C78.1856 17.8486 78.1019 17.9704 77.9956 18.0709C77.8913 18.1739 77.7673 18.2547 77.631 18.3086C77.4946 18.3625 77.3488 18.3883 77.2023 18.3845H66.8056C66.6571 18.3855 66.5097 18.3573 66.372 18.3015C66.2337 18.2525 66.1077 18.1737 66.003 18.0709C65.8961 17.9709 65.8085 17.852 65.7447 17.7203C65.6815 17.5846 65.65 17.4364 65.6525 17.2867Z" fill="white"/>
<path d="M75.9123 17.2878C75.9092 17.1397 75.9371 16.9926 75.9943 16.856C76.0515 16.7193 76.1367 16.5962 76.2444 16.4944C76.3675 16.3798 76.513 16.292 76.6718 16.2364C76.8306 16.1808 76.9992 16.1587 77.1669 16.1716H78.3477H79.7591C80.2296 16.1643 80.6986 16.1181 81.1613 16.0332C81.5815 15.9632 81.9908 15.8392 82.3791 15.6642C82.7286 15.5079 83.0262 15.255 83.237 14.9354C83.4835 14.5699 83.6327 14.1477 83.6706 13.7085C83.713 13.2243 83.6661 12.7365 83.5322 12.2694C83.3928 11.8461 83.1873 11.4476 82.9233 11.0885C82.5473 10.555 82.1408 10.0437 81.7056 9.55718C81.2259 9.0129 80.6909 8.45018 80.0912 7.87822C79.4916 7.30627 78.9012 6.78044 78.2462 6.28229L78.5045 3.96678L87.7296 0L88.5968 2.05719L80.5248 5.4428L81.7333 6.50368C82.1896 6.91388 82.6238 7.34808 83.034 7.80442C83.5551 8.379 84.0273 8.99616 84.4455 9.64944C84.7803 10.1683 85.0645 10.7182 85.2942 11.2915C85.4863 11.7629 85.6225 12.2552 85.7001 12.7583C85.7544 13.1902 85.7544 13.6271 85.7001 14.059C85.6697 14.4422 85.5923 14.8202 85.4695 15.1845C85.364 15.5043 85.2281 15.8132 85.0635 16.107C84.7046 16.7119 84.2122 17.2267 83.6238 17.612C83.0354 17.9973 82.3666 18.243 81.6687 18.3302C81.3458 18.3851 81.0184 18.4099 80.6909 18.404H77.0008C76.8339 18.4159 76.6663 18.3943 76.5079 18.3404C76.3495 18.2866 76.2034 18.2015 76.0783 18.0904C75.9716 17.9918 75.8869 17.8719 75.8296 17.7383C75.7724 17.6048 75.744 17.4607 75.7462 17.3155" fill="white"/>
<path d="M89.994 29.9648H0.925781V30.5183H89.994V29.9648Z" fill="white"/>
</svg>
