<svg width="36" height="36" viewBox="0 0 36 36" fill="none" xmlns="http://www.w3.org/2000/svg">
<path d="M19.5162 4.38047L28.3662 8.31047C30.9162 9.43547 30.9162 11.2955 28.3662 12.4205L19.5162 16.3505C18.5112 16.8005 16.8612 16.8005 15.8562 16.3505L7.00625 12.4205C4.45625 11.2955 4.45625 9.43547 7.00625 8.31047L15.8562 4.38047C16.8612 3.93047 18.5112 3.93047 19.5162 4.38047Z" stroke="#929292" stroke-width="2" stroke-linecap="round" stroke-linejoin="round"/>
<path d="M4.5 16.5C4.5 17.76 5.445 19.215 6.6 19.725L16.785 24.255C17.565 24.6 18.45 24.6 19.215 24.255L29.4 19.725C30.555 19.215 31.5 17.76 31.5 16.5" stroke="#929292" stroke-width="2" stroke-linecap="round" stroke-linejoin="round"/>
<path d="M4.5 24C4.5 25.395 5.325 26.655 6.6 27.225L16.785 31.755C17.565 32.1 18.45 32.1 19.215 31.755L29.4 27.225C30.675 26.655 31.5 25.395 31.5 24" stroke="#929292" stroke-width="2" stroke-linecap="round" stroke-linejoin="round"/>
</svg>
