<svg width="36" height="36" viewBox="0 0 36 36" fill="none" xmlns="http://www.w3.org/2000/svg">
<path d="M28.6055 28.6046C34.4705 22.7396 34.4705 13.2445 28.6055 7.39453" stroke="#929292" stroke-width="2" stroke-linecap="round" stroke-linejoin="round"/>
<path d="M7.39484 7.39453C1.52984 13.2595 1.52984 22.7546 7.39484 28.6046" stroke="#929292" stroke-width="2" stroke-linecap="round" stroke-linejoin="round"/>
<path d="M13.0508 32.1133C14.6558 32.6683 16.3208 32.9384 18.0008 32.9384C19.6808 32.9234 21.3457 32.6683 22.9507 32.1133" stroke="#929292" stroke-width="2" stroke-linecap="round" stroke-linejoin="round"/>
<path d="M13.0508 3.88367C14.6558 3.32867 16.3208 3.05859 18.0008 3.05859C19.6808 3.05859 21.3457 3.32867 22.9507 3.88367" stroke="#929292" stroke-width="2" stroke-linecap="round" stroke-linejoin="round"/>
<path d="M13.1094 17.9983V15.4933C13.1094 12.3733 15.3144 11.0983 18.0144 12.6583L20.1894 13.9183L22.3644 15.1782C25.0644 16.7382 25.0644 19.2883 22.3644 20.8483L20.1894 22.1082L18.0144 23.3683C15.3144 24.9283 13.1094 23.6533 13.1094 20.5333V17.9983Z" stroke="#929292" stroke-width="2" stroke-miterlimit="10" stroke-linecap="round" stroke-linejoin="round"/>
</svg>
