<?xml version="1.0" encoding="UTF-8"?>
<svg id="Layer_1" data-name="Layer 1" xmlns="http://www.w3.org/2000/svg" viewBox="0 0 516.71 499.76">
  <defs>
    <style>
      .cls-1 {
        fill: #fff;
      }
    </style>
  </defs>
  <path class="cls-1" d="M249.08,474.19c-3.95,0-7.15-3.2-7.15-7.15v-45.99c0-10.39-7.77-19.22-18.07-20.55l-20.49-2.63c-17.42-2.24-30.56-17.17-30.56-34.73v-49.56l-25.23,.24c-5.06,0-9.6-2.61-12.15-6.99-2.55-4.37-2.58-9.62-.08-14.02l22.6-39.85c12.58-22.17,19.23-47.37,19.23-72.87,0-42.66,19.39-82.87,51.87-107.56,32.48-24.69,72.91-35.22,113.87-29.62,67.88,9.26,121.34,63.23,130.02,131.24,6.22,48.75-10.32,96.12-45.38,129.97-14.79,14.29-22.92,33.11-22.89,52.99v5.09c.03,3.95-3.17,7.16-7.12,7.17-3.96,0-7.16-3.19-7.17-7.13v-5.1c-.05-23.48,9.89-46.55,27.25-63.32,31.78-30.69,46.76-73.65,41.12-117.88-7.73-60.62-57.26-110.62-117.75-118.88-37.2-5.09-73.85,4.46-103.28,26.83-28.94,22-46.22,57.96-46.22,96.18,0,27.97-7.29,55.61-21.09,79.93l-22.6,39.85,25.25-.36c7.76,0,14.07,6.31,14.07,14.07v49.56c0,10.39,7.77,19.22,18.07,20.55l20.49,2.63c17.42,2.24,30.56,17.17,30.56,34.73v45.99c0,3.95-3.2,7.15-7.15,7.15Z"/>
  <path class="cls-1" d="M397.7,474.19c-3.95,0-7.15-3.2-7.15-7.14l-.03-17.88c0-3.95,3.19-7.16,7.14-7.16,3.96,0,7.16,3.2,7.17,7.14l.03,17.88c0,3.95-3.19,7.16-7.14,7.16h-.01Z"/>
  <path class="cls-1" d="M397.63,433.29c-3.95,0-7.15-3.2-7.15-7.14l-.04-23.01c0-3.95,3.19-7.16,7.14-7.16,3.96,0,7.16,3.2,7.17,7.14l.03,23.01c0,3.95-3.19,7.16-7.14,7.16h-.01Z"/>
  <path class="cls-1" d="M397.55,387.26c-3.95,0-7.15-3.2-7.15-7.14l-.03-17.88c0-3.95,3.19-7.16,7.14-7.16,3.96,0,7.16,3.2,7.17,7.14l.03,17.88c0,3.95-3.19,7.16-7.14,7.16h-.01Z"/>
  <path class="cls-1" d="M124.39,474.19c-3.96,0-7.16-3.21-7.15-7.17l.19-109.91c.03-19.89-8.1-38.7-22.89-52.99-35.05-33.85-51.59-81.22-45.38-129.97C57.84,106.13,111.3,52.17,179.18,42.9c40.9-5.6,81.38,4.92,113.86,29.62,32.48,24.7,51.88,64.91,51.87,107.56,0,25.5,6.65,50.7,19.23,72.87l22.61,39.86c2.49,4.4,2.47,9.64-.08,14.02-2.55,4.38-7.09,6.99-12.16,6.99h-25.46l.24,49.32c0,17.57-13.14,32.5-30.57,34.73l-20.49,2.63c-10.3,1.32-18.07,10.16-18.07,20.55v45.99c0,3.95-3.2,7.15-7.15,7.15s-7.15-3.2-7.15-7.15v-45.99c0-17.57,13.14-32.5,30.56-34.73l20.49-2.63c10.3-1.32,18.08-10.16,18.08-20.55v-49.56c0-7.76,6.31-14.07,14.06-14.07h25.46l-22.81-39.5c-13.8-24.32-21.09-51.96-21.09-79.93,0-38.21-17.27-74.16-46.22-96.18-29.43-22.37-66.07-31.9-103.27-26.83-60.5,8.26-110.03,58.25-117.76,118.88-5.64,44.23,9.35,87.19,41.12,117.88,17.36,16.77,27.29,39.84,27.26,63.3l-.19,109.91c0,3.94-3.21,7.14-7.15,7.14Z"/>
  <path class="cls-1" d="M442.26,474.19H79.82c-3.95,0-7.15-3.2-7.15-7.15s3.2-7.15,7.15-7.15H442.26c3.95,0,7.15,3.2,7.15,7.15s-3.2,7.15-7.15,7.15Z"/>
</svg>